# File created by Blade
# Date/Time:  Tue Apr 07 20:49:15 2015
#---------------------------------------------------------
:version 1.10
:name HOM
:units
  mass 1.0
  length 1.000000
  angle deg
:documentation
     Acclaim Skeleton File
:root
   axis xyz
   order TX TY TZ RX RY RZ
   position 0.000000 0.000000 0.000000
   orientation 0 0 0
:bonedata
   begin
      id 1
      name Spine_dum
      direction 0.000000 1.000000 0.000000
      length 4.885285
      axis 0.0 0.0 0.0 xyz
   end
   begin
      id 2
      name LeftUpLeg_dum
      direction 1.000000 0.000000 0.000000
      length 2.672193
      axis 0.0 0.0 0.0 xyz
   end
   begin
      id 3
      name RightUpLeg_dum
      direction -1.000000 0.000000 0.000000
      length 2.672193
      axis 0.0 0.0 0.0 xyz
   end
   begin
      id 4
      name Spine
      direction 0.000000 1.000000 0.000000
      length 0.000000
      axis 0.0 0.0 0.0 xyz
      dof rx ry rz
   end
   begin
      id 5
      name Spine_dum1
      direction 0.000000 1.000000 0.000000
      length 16.494159
      axis 0.0 0.0 0.0 xyz
   end
   begin
      id 6
      name Spine_dum2
      direction 0.000000 1.000000 0.000000
      length 10.663448
      axis 0.0 0.0 0.0 xyz
   end
   begin
      id 7
      name Spine_dum3
      direction 0.000000 1.000000 0.000000
      length 10.663448
      axis 0.0 0.0 0.0 xyz
   end
   begin
      id 8
      name Head
      direction 0.000000 1.000000 0.000000
      length 4.527550
      axis 0.0 0.0 0.0 xyz
      dof rx ry rz
   end
   begin
      id 9
      name LeftShoulder
      direction 1.000000 0.000000 0.000000
      length 7.531907
      axis 0.0 0.0 -90.0 xyz
      dof rx ry rz
   end
   begin
      id 10
      name LeftArm
      direction 1.000000 0.000000 0.000000
      length 10.229199
      axis 0.0 0.0 -90.0 xyz
      dof rx ry rz
   end
   begin
      id 11
      name LeftForeArm
      direction 1.000000 0.000000 0.000000
      length 8.673495
      axis 0.0 0.0 -90.0 xyz
      dof ry rz rx
   end
   begin
      id 12
      name LeftHand
      direction 0.000000 0.000000 0.000000
      length 0.000000
      axis 0.0 0.0 -90.0 xyz
      dof rx ry rz
   end
   begin
      id 13
      name LeftHand_dum1
      direction 0.000000 0.000000 0.000000
      length 0.000000
      axis 0.0 0.0 -90.0 xyz
   end
   begin
      id 14
      name LeftHand_dum2
      direction 1.000000 0.000000 0.000000
      length 3.937000
      axis 0.0 0.0 -90.0 xyz
   end
   begin
      id 15
      name LeftHandThumb1
      direction 0.000000 0.000000 1.000000
      length 3.937000
      axis 0.0 0.0 -90.0 xyz
      dof rx rz ry
   end
   begin
      id 16
      name RightShoulder
      direction -1.000000 0.000000 0.000000
      length 7.531907
      axis 0.0 0.0 90.0 xyz
      dof rx ry rz
   end
   begin
      id 17
      name RightArm
      direction -1.000000 0.000000 0.000000
      length 10.229199
      axis 0.0 0.0 90.0 xyz
      dof rx ry rz
   end
   begin
      id 18
      name RightForeArm
      direction -1.000000 0.000000 0.000000
      length 8.673495
      axis 0.0 0.0 90.0 xyz
      dof ry rz rx
   end
   begin
      id 19
      name RightHand
      direction 0.000000 0.000000 0.000000
      length 0.000000
      axis 0.0 0.0 90.0 xyz
      dof rx ry rz
   end
   begin
      id 20
      name RightHand_dum1
      direction 0.000000 0.000000 0.000000
      length 0.000000
      axis 0.0 0.0 90.0 xyz
   end
   begin
      id 21
      name RightHand_dum2
      direction -1.000000 0.000000 0.000000
      length 3.937000
      axis 0.0 0.0 90.0 xyz
   end
   begin
      id 22
      name RightHandThumb1
      direction 0.000000 0.000000 1.000000
      length 3.937000
      axis 0.0 0.0 90.0 xyz
      dof rx rz ry
   end
   begin
      id 23
      name LeftUpLeg
      direction 0.000000 -1.000000 0.000000
      length 16.263388
      axis 0.0 0.0 0.0 xyz
      dof rx ry rz
   end
   begin
      id 24
      name LeftLeg
      direction 0.000000 -1.000000 0.000000
      length 14.328163
      axis 0.0 0.0 0.0 xyz
      dof rx ry rz
   end
   begin
      id 25
      name LeftFoot
      direction 0.000000 -0.258819 0.965926
      length 5.031290
      axis 15.0 0.0 0.0 xyz
      dof rx ry rz
   end
   begin
      id 26
      name LeftToeBase
      direction 0.000000 0.000000 1.000000
      length 2.952750
      axis 0.0 0.0 0.0 xyz
      dof rx ry rz
   end
   begin
      id 27
      name RightUpLeg
      direction 0.000000 -1.000000 0.000000
      length 16.263388
      axis 0.0 0.0 0.0 xyz
      dof rx ry rz
   end
   begin
      id 28
      name RightLeg
      direction 0.000000 -1.000000 0.000000
      length 14.328163
      axis 0.0 0.0 0.0 xyz
      dof rx ry rz
   end
   begin
      id 29
      name RightFoot
      direction 0.000000 -0.258819 0.965926
      length 5.031290
      axis 15.0 0.0 0.0 xyz
      dof rx ry rz
   end
   begin
      id 30
      name RightToeBase
      direction 0.000000 0.000000 1.000000
      length 2.952750
      axis 0.0 0.0 0.0 xyz
      dof rx ry rz
   end
:hierarchy
   begin
      root Spine_dum LeftUpLeg_dum RightUpLeg_dum
      Spine_dum Spine
      LeftUpLeg_dum LeftUpLeg
      RightUpLeg_dum RightUpLeg
      Spine Spine_dum1 Spine_dum2 Spine_dum3
      Spine_dum1 Head
      Spine_dum2 LeftShoulder
      Spine_dum3 RightShoulder
      LeftShoulder LeftArm
      LeftArm LeftForeArm
      LeftForeArm LeftHand
      LeftHand LeftHand_dum1 LeftHand_dum2
      LeftHand_dum1 LeftHandThumb1
      RightShoulder RightArm
      RightArm RightForeArm
      RightForeArm RightHand
      RightHand RightHand_dum1 RightHand_dum2
      RightHand_dum1 RightHandThumb1
      LeftUpLeg LeftLeg
      LeftLeg LeftFoot
      LeftFoot LeftToeBase
      RightUpLeg RightLeg
      RightLeg RightFoot
      RightFoot RightToeBase
   end

# File created by Blade
# Date/Time:  Tue Apr 07 20:49:23 2015
# Frame Rate: 120.000 fps
#------------------------------------------------------
:FULLY-SPECIFIED
:DEGREES
64
root 3.558339 32.980428 -2.042645 9.060742 2.051746 -2.078349
Spine -12.301128 -3.692439 1.961084
Head 11.999398 0.200713 -1.327950
LeftShoulder -20.371791 38.875383 21.590178
LeftArm 56.265076 -56.289178 -53.935871
LeftForeArm 11.198828 -0.000000 -1.891125
LeftHand 2.870084 0.000000 4.186348
LeftHandThumb1 -26.253704 0.000000 33.147579
RightShoulder -6.457548 4.487891 -30.710107
RightArm 10.964349 15.990252 41.832020
RightForeArm -10.161247 0.000000 0.058308
RightHand 2.381279 -0.000000 0.730959
RightHandThumb1 -24.326973 -0.000000 -32.862282
LeftUpLeg -2.210629 -6.844214 4.035820
LeftLeg -4.384920 -0.000000 0.000000
LeftFoot -3.226903 9.074621 -18.811486
LeftToeBase -12.920041 -0.000000 0.000000
RightUpLeg -3.167292 -3.983791 2.430971
RightLeg -2.228054 -0.000000 0.000000
RightFoot -4.885246 -8.495353 8.412481
RightToeBase -3.117738 -0.000000 0.000000
65
root 3.547417 32.991101 -2.028504 9.019721 2.364139 -2.103301
Spine -12.244104 -3.703631 2.028283
Head 11.888396 0.178764 -1.478181
LeftShoulder -20.317713 38.846375 21.594369
LeftArm 56.354971 -56.279460 -54.060616
LeftForeArm 11.297908 -0.000000 -1.797931
LeftHand 2.905276 -0.000000 3.961751
LeftHandThumb1 -26.253704 0.000000 33.147579
RightShoulder -6.468836 4.413005 -30.716636
RightArm 10.944146 15.996534 41.875367
RightForeArm -10.057253 -0.000000 0.025418
RightHand 2.553042 -0.000000 0.603818
RightHandThumb1 -24.326973 -0.000000 -32.862282
LeftUpLeg -2.209942 -7.032542 4.144237
LeftLeg -4.369366 -0.000000 0.000000
LeftFoot -3.063258 8.885129 -18.900337
LeftToeBase -12.990798 -0.000000 0.000000
RightUpLeg -3.125470 -4.104658 2.490217
RightLeg -2.165762 -0.000000 0.000000
RightFoot -4.759765 -8.596084 8.437366
RightToeBase -3.306390 -0.000000 0.000000
66
root 3.535198 33.001530 -2.016632 8.984850 2.674582 -2.150864
Spine -12.193015 -3.736591 2.130353
Head 11.778341 0.203939 -1.625206
LeftShoulder -20.347032 38.917285 21.525960
LeftArm 56.484514 -56.215397 -54.168642
LeftForeArm 11.233882 -0.000000 -1.725383
LeftHand 2.881395 0.000000 3.918052
LeftHandThumb1 -26.253704 0.000000 33.147579
RightShoulder -6.418677 4.405867 -30.725249
RightArm 10.865196 16.009960 41.911060
RightForeArm -10.042249 -0.000000 0.031940
RightHand 2.264168 -0.000000 0.692754
RightHandThumb1 -24.326973 -0.000000 -32.862282
LeftUpLeg -2.223755 -7.228229 4.274819
LeftLeg -4.336502 -0.000000 0.000000
LeftFoot -2.942932 8.713760 -18.998496
LeftToeBase -13.018905 -0.000000 0.000000
RightUpLeg -3.106294 -4.163291 2.563636
RightLeg -2.075112 -0.000000 0.000000
RightFoot -4.614575 -8.697125 8.473505
RightToeBase -3.617736 -0.000000 0.000000
67
root 3.523635 33.011654 -2.004194 8.937400 3.003308 -2.219990
Spine -12.131431 -3.728673 2.263208
Head 11.664699 0.171300 -1.799197
LeftShoulder -20.303408 38.892642 21.508081
LeftArm 56.438770 -56.060909 -54.102894
LeftForeArm 11.150529 -0.000000 -1.691160
LeftHand 2.865571 -0.000000 3.931515
LeftHandThumb1 -26.253704 0.000000 33.147579
RightShoulder -6.404083 4.386625 -30.741679
RightArm 10.794713 16.038539 41.943557
RightForeArm -10.112271 0.000000 -0.011148
RightHand 2.305297 0.000000 0.401674
RightHandThumb1 -24.326973 -0.000000 -32.862282
LeftUpLeg -2.232620 -7.384768 4.422374
LeftLeg -4.299337 -0.000000 0.000000
LeftFoot -2.809797 8.495773 -19.078780
LeftToeBase -13.069900 -0.000000 0.000000
RightUpLeg -3.072662 -4.251493 2.658320
RightLeg -1.983817 -0.000000 0.000000
RightFoot -4.442371 -8.769630 8.463040
RightToeBase -3.936715 -0.000000 0.000000
68
root 3.507413 33.021887 -1.991135 8.888844 3.348813 -2.321248
Spine -12.081736 -3.765029 2.436304
Head 11.579735 0.191015 -1.976933
LeftShoulder -20.300187 38.897358 21.469848
LeftArm 56.488000 -55.947644 -54.161909
LeftForeArm 11.110590 -0.000000 -1.678803
LeftHand 2.868513 -0.000000 3.841490
LeftHandThumb1 -26.253704 0.000000 33.147579
RightShoulder -6.363385 4.331423 -30.756327
RightArm 10.782515 16.106142 42.010972
RightForeArm -10.184169 -0.000000 -0.056968
RightHand 2.453443 -0.000000 0.252113
RightHandThumb1 -24.326973 -0.000000 -32.862282
LeftUpLeg -2.252703 -7.507808 4.609041
LeftLeg -4.246009 -0.000000 0.000000
LeftFoot -2.691046 8.238224 -19.178826
LeftToeBase -13.111973 -0.000000 0.000000
RightUpLeg -2.962119 -4.104216 2.769931
RightLeg -2.044586 -0.000000 0.000000
RightFoot -4.250355 -9.032541 8.652084
RightToeBase -4.179644 -0.000000 0.000000
69
root 3.492743 33.031502 -1.979833 8.843186 3.714249 -2.439448
Spine -12.030246 -3.785074 2.632920
Head 11.472783 0.212369 -2.160318
LeftShoulder -20.337060 38.973427 21.389603
LeftArm 56.650327 -55.797195 -54.263027
LeftForeArm 11.018711 -0.000000 -1.727198
LeftHand 2.874197 0.000000 3.981542
LeftHandThumb1 -26.253704 0.000000 33.147579
RightShoulder -6.358695 4.299184 -30.804509
RightArm 10.785160 16.060115 42.103768
RightForeArm -10.118712 -0.000000 -0.140622
RightHand 2.583063 -0.000000 0.166702
RightHandThumb1 -24.326973 -0.000000 -32.862282
LeftUpLeg -2.296046 -7.605328 4.812262
LeftLeg -4.173434 -0.000000 0.000000
LeftFoot -2.531942 7.908565 -19.421368
LeftToeBase -13.504604 -0.000000 0.000000
RightUpLeg -2.893303 -4.046915 2.889329
RightLeg -2.028345 -0.000000 0.000000
RightFoot -4.077433 -9.153465 8.844934
RightToeBase -4.474890 -0.000000 0.000000
70
root 3.479583 33.041059 -1.968808 8.786012 4.089033 -2.542112
Spine -11.968766 -3.808886 2.819840
Head 11.383923 0.238468 -2.333523
LeftShoulder -20.364712 39.043410 21.300828
LeftArm 56.734041 -55.617012 -54.282831
LeftForeArm 10.863536 0.000000 -1.768726
LeftHand 2.884347 -0.000000 3.942820
LeftHandThumb1 -26.253704 0.000000 33.147579
RightShoulder -6.323685 4.321118 -30.838401
RightArm 10.717649 16.028310 42.163319
RightForeArm -10.047528 -0.000000 -0.144868
RightHand 2.438902 0.000000 0.365832
RightHandThumb1 -24.326973 -0.000000 -32.862282
LeftUpLeg -2.315349 -7.728051 4.994339
LeftLeg -4.129195 -0.000000 0.000000
LeftFoot -2.398513 7.644921 -19.503420
LeftToeBase -13.541381 -0.000000 0.000000
RightUpLeg -2.935094 -4.260249 3.021867
RightLeg -1.765045 -0.000000 0.000000
RightFoot -3.951937 -9.074940 8.757894
RightToeBase -4.892560 -0.000000 0.000000
71
root 3.471223 33.050853 -1.957021 8.714657 4.460587 -2.593663
Spine -11.897845 -3.821909 2.958915
Head 11.323407 0.252663 -2.525569
LeftShoulder -20.354331 39.068002 21.253409
LeftArm 56.845417 -55.472656 -54.408546
LeftForeArm 10.807083 -0.000000 -1.797168
LeftHand 2.946726 -0.000000 3.938555
LeftHandThumb1 -26.253704 0.000000 33.147579
RightShoulder -6.297767 4.270163 -30.848977
RightArm 10.735423 15.994593 42.208409
RightForeArm -9.989674 -0.000000 -0.216140
RightHand 2.393960 -0.000000 0.321318
RightHandThumb1 -24.326973 -0.000000 -32.862282
LeftUpLeg -2.368925 -7.674780 5.115384
LeftLeg -3.971631 -0.000000 0.000000
LeftFoot -2.257577 7.129684 -19.682279
LeftToeBase -13.597359 -0.000000 0.000000
RightUpLeg -2.887758 -4.325351 3.065400
RightLeg -1.636609 -0.000000 0.000000
RightFoot -3.882357 -9.025523 8.936161
RightToeBase -4.993675 -0.000000 0.000000
72
root 3.454643 33.060277 -1.946919 8.658233 4.864381 -2.702911
Spine -11.841812 -3.829670 3.142628
Head 11.235283 0.250374 -2.678509
LeftShoulder -20.328667 39.108926 21.223657
LeftArm 57.012020 -55.338162 -54.575661
LeftForeArm 10.831389 -0.000000 -1.903967
LeftHand 3.216106 -0.000000 3.784696
LeftHandThumb1 -26.253704 0.000000 33.147579
RightShoulder -6.316614 4.179000 -30.876669
RightArm 10.777439 16.013308 42.324434
RightForeArm -9.951060 -0.000000 -0.221463
RightHand 2.359864 -0.000000 0.289783
RightHandThumb1 -24.326973 -0.000000 -32.862282
LeftUpLeg -2.409443 -7.760017 5.314196
LeftLeg -3.904561 -0.000000 0.000000
LeftFoot -2.123516 6.793040 -19.777552
LeftToeBase -13.672426 -0.000000 0.000000
RightUpLeg -2.846731 -4.337614 3.164782
RightLeg -1.544147 -0.000000 0.000000
RightFoot -3.695449 -9.021763 9.065948
RightToeBase -5.479191 -0.000000 0.000000
